<svg xmlns="http://www.w3.org/2000/svg" viewBox="0 0 16 16" width="16" height="16">
  <!-- 背景 -->
  <circle cx="8" cy="8" r="8" fill="#2c3e50"/>
  
  <!-- 絞り羽根（6枚、シンプルな形状） -->
  <g transform="translate(8,8)" fill="#ecf0f1">
    <path d="M0,-6 L1.5,-3 L0,-1 L-1.5,-3 Z" transform="rotate(0)"/>
    <path d="M0,-6 L1.5,-3 L0,-1 L-1.5,-3 Z" transform="rotate(60)"/>
    <path d="M0,-6 L1.5,-3 L0,-1 L-1.5,-3 Z" transform="rotate(120)"/>
    <path d="M0,-6 L1.5,-3 L0,-1 L-1.5,-3 Z" transform="rotate(180)"/>
    <path d="M0,-6 L1.5,-3 L0,-1 L-1.5,-3 Z" transform="rotate(240)"/>
    <path d="M0,-6 L1.5,-3 L0,-1 L-1.5,-3 Z" transform="rotate(300)"/>
  </g>
  
  <!-- 中央の穴 -->
  <circle cx="8" cy="8" r="2" fill="#34495e"/>
  
  <!-- f マーク -->
  <text x="8" y="11.5" text-anchor="middle" font-family="Arial, sans-serif" font-size="4" fill="#e74c3c" font-weight="bold">f</text>
</svg>
